<svg width="40px" height="37px" viewBox="0 0 40 37" version="1.1" xmlns="http://www.w3.org/2000/svg" xmlns:xlink="http://www.w3.org/1999/xlink">
    <g id="New" stroke="none" stroke-width="1" fill="none" fill-rule="evenodd">
        <g id="Main" transform="translate(-764.000000, -1877.000000)" fill="#35CBBA" fill-rule="nonzero">
            <g id="263142" transform="translate(764.000000, 1877.000000)">
                <path d="M16.7567568,29.7491039 C18.7105887,29.7491039 20.3002216,31.3301904 20.3003003,33.2735962 C20.3003003,35.2170019 18.7106674,36.7980884 16.7567568,36.7980884 C14.8028461,36.7980884 13.2132132,35.2170019 13.2132132,33.2735962 C13.2132132,31.3301904 14.8028461,29.7491039 16.7567568,29.7491039 Z M16.7567568,34.8300271 C17.6196441,34.8300271 18.3217582,34.1318444 18.3217582,33.2734396 C18.3217582,32.4151915 17.6196441,31.7168522 16.7567568,31.7168522 C15.8938694,31.7168522 15.1917553,32.4151132 15.1917553,33.2734396 C15.1917553,34.1316878 15.8937907,34.8300271 16.7567568,34.8300271 Z M29.1291291,29.7491039 C31.0829611,29.7491039 32.672594,31.3301904 32.6726727,33.2735962 C32.6726727,35.2170019 31.0830398,36.7980884 29.1291291,36.7980884 C27.1752185,36.7980884 25.5855856,35.2170019 25.5855856,33.2735962 C25.5855856,31.3301904 27.1752185,29.7491039 29.1291291,29.7491039 Z M29.1291291,34.8300271 C29.9920165,34.8300271 30.6941306,34.1318444 30.6941306,33.2734396 C30.6941306,32.4151915 29.9920952,31.7168522 29.1291291,31.7168522 C28.2662418,31.7168522 27.5641277,32.4151132 27.5641277,33.2734396 C27.5641277,34.1316878 28.2661631,34.8300271 29.1291291,34.8300271 Z M30.0053461,11.4695341 C30.5497207,11.4695341 30.990991,11.8973644 30.990991,12.4253286 C30.990991,12.9532166 30.5497207,13.3811231 30.0053461,13.3811231 L15.8805398,13.3811231 C15.3362436,13.3811231 14.8948949,12.9532166 14.8948949,12.4253286 C14.8948949,11.8974405 15.3361652,11.4695341 15.8805398,11.4695341 L30.0053461,11.4695341 Z M29.1661988,16.4874552 C29.709603,16.4874552 30.1501502,16.9154376 30.1501502,17.4432497 C30.1501502,17.9711378 29.709603,18.3990442 29.1661205,18.3990442 L16.5996452,18.3990442 C16.0561628,18.3990442 15.6156156,17.9711378 15.6156156,17.4432497 C15.6156156,16.9153616 16.0561628,16.4874552 16.5996452,16.4874552 L29.1661988,16.4874552 Z M39.5579534,7.03220635 C39.932563,7.48868279 40.0788131,8.0814116 39.9592037,8.65807876 L37.2120924,21.9011719 C37.0249829,22.8034171 36.2158417,23.4582974 35.288341,23.4582974 L10.9998866,23.4582974 L11.5779339,26.2451082 L35.1064659,26.2451082 C35.6488882,26.2451082 36.088576,26.6817986 36.088576,27.2205231 C36.088576,27.7592475 35.6488882,28.1959379 35.1064659,28.1959379 L11.5778557,28.1959379 C10.650277,28.1959379 9.8412139,27.5410575 9.65402627,26.6388124 L4.9019917,3.72878494 L0.591207441,1.87036792 C0.0937852184,1.65597995 -0.134574316,1.08148538 0.0815195848,0.587221403 C0.297379111,0.0931126157 0.87573889,-0.133690146 1.37339549,0.0810081919 L5.68410162,1.93934762 C6.27011766,2.19206626 6.6968367,2.71379796 6.82582117,3.33515839 L7.4436341,6.31385535 L38.0353742,6.31385535 C38.6284215,6.31385535 39.1834219,6.57565231 39.5579534,7.03220635 Z M35.288341,21.507623 L38.0352961,8.26460739 L7.84832188,8.26460739 L10.5952769,21.507623 L35.288341,21.507623 Z" id="Combined-Shape"></path>
            </g>
        </g>
    </g>
</svg>