<svg width="42px" height="35px" viewBox="0 0 42 35" version="1.1" xmlns="http://www.w3.org/2000/svg" xmlns:xlink="http://www.w3.org/1999/xlink">
<g id="Symbols" stroke="none" stroke-width="1" fill="none" fill-rule="evenodd">
<g id="header" transform="translate(-1171.000000, -70.000000)" fill="#35CBBA">
<path d="M1194.58141,92.7358844 C1194.91619,92.4037659 1195.45629,92.4037659 1195.79108,92.7358844 C1195.95048,92.8949552 1196.04033,93.1112647 1196.04033,93.3365594 C1196.04033,93.5618542 1195.95048,93.777831 1195.79108,93.9372345 L1191.69317,98.0348037 C1191.53077,98.1918777 1191.31447,98.2803982 1191.0885,98.2820621 C1190.86088,98.2810638 1190.64291,98.1888826 1190.4835,98.026484 L1188.1833,95.7089765 C1187.85418,95.3751941 1187.85784,94.8374152 1188.19195,94.507959 C1188.52607,94.1785029 1189.06385,94.1824963 1189.39297,94.5162787 L1191.0885,96.228785 L1194.58141,92.7358844 Z M1208.70642,78.7303379 C1209.83556,78.7296724 1210.91844,79.1782652 1211.71612,79.9776124 C1212.5138,80.7769594 1212.9604,81.8608368 1212.9574,82.9899728 L1212.9574,83.37334 C1212.95241,85.4965018 1211.38799,87.2932024 1209.28547,87.5903785 L1207.25815,101.289098 C1206.93967,103.374655 1205.15062,104.918107 1203.04111,104.927093 L1180.9163,104.927093 C1178.80811,104.91478 1177.02073,103.372991 1176.69926,101.289098 L1174.67194,87.5903785 C1172.56808,87.2958647 1171.00233,85.4975001 1171,83.37334 L1171,82.9899728 C1171.001,80.6375229 1172.90752,78.7310036 1175.25963,78.7303379 L1177.90926,78.7303379 L1186.01954,70.619727 C1186.85483,69.7934243 1188.19994,69.7934243 1189.03523,70.619727 C1189.86453,71.4540163 1189.86453,72.8014586 1189.03523,73.6357481 L1183.94064,78.7303379 L1200.02509,78.7303379 L1194.9305,73.6357481 C1194.12216,72.8011259 1194.13181,71.4726522 1194.95213,70.6500103 C1195.77277,69.8273683 1197.10125,69.8137241 1197.93786,70.619727 L1206.04814,78.7303379 L1208.70642,78.7303379 Z M1196.13185,72.4260783 L1202.43611,78.7303379 L1203.63746,78.7303379 L1196.73685,71.8297294 C1196.56746,71.6676637 1196.3009,71.6676637 1196.13185,71.8297294 C1196.04932,71.9066025 1196.00306,72.0147574 1196.00406,72.1279039 C1196.00572,72.2400521 1196.05164,72.3472085 1196.13185,72.4260783 Z M1187.22921,71.8297294 L1180.3286,78.7303379 L1181.52995,78.7303379 L1187.83421,72.4260783 C1187.91674,72.3488724 1187.963,72.2407177 1187.962,72.1279039 C1187.95867,71.9558546 1187.85318,71.8021084 1187.69378,71.7372155 C1187.53437,71.6723226 1187.35167,71.7085961 1187.22921,71.8297294 Z M1205.57126,101.042172 L1207.56464,87.6329749 L1176.40974,87.6329749 L1178.39479,101.042172 C1178.58714,102.292442 1179.66004,103.217248 1180.92495,103.223239 L1203.04111,103.223239 C1204.30602,103.217248 1205.37891,102.292442 1205.57126,101.042172 Z M1211.2622,83.37334 L1211.25355,82.9899728 C1211.24956,81.5799671 1210.10744,80.4381854 1208.69777,80.4341919 L1175.25963,80.4341919 C1173.84996,80.4381854 1172.70785,81.5799671 1172.70385,82.9899728 L1172.70385,83.37334 C1172.70785,84.783013 1173.84996,85.9247947 1175.25963,85.9291209 L1208.70642,85.9291209 C1210.11609,85.9247947 1211.25788,84.783013 1211.2622,83.37334 Z" id="Combined-Shape"></path>
</g>
</g>
</svg>