<svg width="40px" height="40px" viewBox="0 0 40 40" version="1.1" xmlns="http://www.w3.org/2000/svg" xmlns:xlink="http://www.w3.org/1999/xlink">
<g id="New" stroke="none" stroke-width="1" fill="none" fill-rule="evenodd">
<g id="Main" transform="translate(-764.000000, -2156.000000)" fill="#35CBBA" fill-rule="nonzero">
<g id="590489" transform="translate(764.000000, 2156.000000)">
<path d="M39.8433528,24.5294347 C40.0354776,25.0334503 39.8832749,25.6073294 39.4640936,25.9466667 L35.6640156,29.025653 L34.8955166,33.8587135 C34.8106823,34.3901754 34.391501,34.8093567 33.860039,34.894191 L29.0269786,35.6626901 L25.9479922,39.462768 C25.7059649,39.7621832 25.3441715,39.9243665 24.9773879,39.9243665 C24.8276803,39.9243665 24.6754776,39.8969201 24.5307602,39.8420273 L19.9621832,38.0904483 L15.3961014,39.8420273 C14.8920858,40.0391423 14.3207018,39.8844444 13.9788694,39.462768 L10.899883,35.6626901 L6.06682261,34.894191 C5.53536062,34.8093567 5.11617934,34.3901754 5.03134503,33.8587135 L4.262846,29.025653 L0.462768031,25.9466667 C0.0435867446,25.6073294 -0.108615984,25.0359454 0.0835087719,24.5319298 L1.83508772,19.9633528 L0.0835087719,15.3947758 C-0.108615984,14.8907602 0.0435867446,14.3193762 0.462768031,13.980039 L4.262846,10.9010526 L5.03134503,6.0679922 C5.11617934,5.53653021 5.53536062,5.11734893 6.06682261,5.03251462 L10.899883,4.26401559 L13.9788694,0.463937622 C14.3182066,0.0422612086 14.8895906,-0.10994152 15.3936062,0.0846783626 L19.9621832,1.83625731 L24.5282651,0.0821832359 C25.0347758,-0.10994152 25.6061598,0.0422612086 25.9454971,0.461442495 L29.0244834,4.26152047 L33.8575439,5.03001949 C34.3890058,5.1148538 34.8081871,5.53403509 34.8930214,6.06549708 L35.6615205,10.8985575 L39.4615984,13.9775439 C39.8807797,14.3168811 40.0354776,14.8907602 39.8408577,15.3947758 L38.0892788,19.9633528 L39.8433528,24.5294347 Z M35.5841715,20.4099805 C35.474386,20.1230409 35.474386,19.8036647 35.5841715,19.5167251 L37.1835478,15.3498635 L33.7128265,12.5403509 C33.4732943,12.345731 33.3136062,12.0712671 33.2661988,11.7668616 L32.5650682,7.35797271 L28.1561793,6.65684211 C27.8517739,6.6094347 27.5773099,6.44974659 27.3826901,6.21021442 L24.5731774,2.73949318 L20.4063158,4.3388694 C20.1193762,4.44865497 19.8,4.44865497 19.5130604,4.3388694 L15.3461988,2.73949318 L12.5391813,6.2077193 C12.3445614,6.44725146 12.0700975,6.60693957 11.765692,6.65434698 L7.35680312,7.35547758 L6.65567251,11.7643665 C6.60826511,12.0687719 6.448577,12.3432359 6.20904483,12.5378558 L2.73832359,15.3473684 L4.33520468,19.5167251 C4.44748538,19.8036647 4.44748538,20.1230409 4.33769981,20.4124756 L2.73832359,24.5793372 L6.20904483,27.3863548 C6.448577,27.5809747 6.60826511,27.8554386 6.65567251,28.1598441 L7.35680312,32.5687329 L11.765692,33.2698635 C12.0700975,33.317271 12.3445614,33.4769591 12.5391813,33.7164912 L15.348694,37.1872125 L19.5155556,35.5878363 C19.6577778,35.5329435 19.8099805,35.5054971 19.9621832,35.5054971 C20.114386,35.5054971 20.2665887,35.5354386 20.411306,35.5878363 L24.5781676,37.1872125 L27.3826901,33.7164912 C27.5773099,33.4769591 27.8517739,33.317271 28.1561793,33.2698635 L32.5650682,32.5687329 L33.2661988,28.1598441 C33.3136062,27.8554386 33.4732943,27.5809747 33.7128265,27.3863548 L37.1835478,24.5768421 L35.5841715,20.4099805 Z M16.2194932,9.982846 C18.282963,9.982846 19.9621832,11.6620663 19.9621832,13.7255361 C19.9621832,15.7890058 18.282963,17.4682261 16.2194932,17.4682261 C14.1560234,17.4682261 12.4768031,15.7890058 12.4768031,13.7255361 C12.4768031,11.6620663 14.1560234,9.982846 16.2194932,9.982846 Z M16.2194932,14.9730994 C16.9081481,14.9730994 17.4670565,14.414191 17.4670565,13.7255361 C17.4670565,13.0368811 16.9081481,12.4779727 16.2194932,12.4779727 C15.5308382,12.4779727 14.9719298,13.0368811 14.9719298,13.7255361 C14.9719298,14.414191 15.5308382,14.9730994 16.2194932,14.9730994 Z M23.7048733,22.4584795 C25.7683431,22.4584795 27.4475634,24.1376998 27.4475634,26.2011696 C27.4475634,28.2646394 25.7683431,29.9438596 23.7048733,29.9438596 C21.6414035,29.9438596 19.9621832,28.2646394 19.9621832,26.2011696 C19.9621832,24.1376998 21.6414035,22.4584795 23.7048733,22.4584795 Z M23.7048733,27.4487329 C24.3935283,27.4487329 24.9524366,26.8898246 24.9524366,26.2011696 C24.9524366,25.5125146 24.3935283,24.9536062 23.7048733,24.9536062 C23.0162183,24.9536062 22.4573099,25.5125146 22.4573099,26.2011696 C22.4573099,26.8898246 23.0162183,27.4487329 23.7048733,27.4487329 Z M26.9260819,10.2173879 C27.4849903,10.6166082 27.617232,11.3950877 27.2155166,11.9564912 L14.739883,29.4223782 C14.4978558,29.7617154 14.1136062,29.9438596 13.7243665,29.9438596 C13.4723587,29.9438596 13.2178558,29.8690058 12.9982846,29.7118129 C12.4393762,29.3125926 12.3096296,28.5316179 12.711345,27.9727096 L25.1869786,10.5068226 C25.5861988,9.94791423 26.3671735,9.81816764 26.9260819,10.2173879 Z" id="Combined-Shape"></path>
</g>
</g>
</g>
</svg>