<svg width="50px" height="40px" viewBox="0 0 50 40" version="1.1" xmlns="http://www.w3.org/2000/svg" xmlns:xlink="http://www.w3.org/1999/xlink">
<g id="New" stroke="none" stroke-width="1" fill="none" fill-rule="evenodd">
<g id="Main" transform="translate(-242.000000, -1876.000000)" fill="#35CBBA" fill-rule="nonzero">
<path d="M251.916585,1885.4165 C251.750163,1885.25008 251.499919,1885.16667 251.333496,1885.16667 L249.5,1885.16667 L249.5,1883.5 L251.333496,1883.5 C252,1883.5 252.583496,1883.74984 253.083171,1884.24992 L253.666667,1884.83341 L253.666667,1881.83333 C253.666667,1880.4165 254.749837,1879.33333 256.166667,1879.33333 L262.833333,1879.33333 L262.833333,1878.5 C262.833333,1877.08317 263.916504,1876 265.333333,1876 L268.666667,1876 C270.083496,1876 271.166667,1877.08317 271.166667,1878.5 L271.166667,1879.33333 L277.833333,1879.33333 C279.250163,1879.33333 280.333333,1880.4165 280.333333,1881.83333 L280.333333,1885.66675 L280.916829,1885.08325 C281.333496,1884.58317 282,1884.33333 282.666504,1884.33333 L284.5,1884.33333 L284.5,1886 L282.666504,1886 C282.416667,1886 282.249837,1886.08341 282.083415,1886.24984 L280.333333,1887.99992 L280.333333,1891.83333 L278.666667,1891.83333 L278.666667,1884.33333 L255.333333,1884.33333 L255.333333,1889.33333 L253.666667,1889.33333 L253.666667,1887.16659 L251.916585,1885.4165 Z M264.5,1878.5 L264.5,1879.33333 L269.5,1879.33333 L269.5,1878.5 C269.5,1877.99992 269.166748,1877.66667 268.666667,1877.66667 L265.333333,1877.66667 C264.833252,1877.66667 264.5,1877.99992 264.5,1878.5 Z M256.166667,1881 C255.666585,1881 255.333333,1881.33325 255.333333,1881.83333 L255.333333,1882.66667 L278.666667,1882.66667 L278.666667,1881.83333 C278.666667,1881.33325 278.333415,1881 277.833333,1881 L256.166667,1881 Z M272,1901.83333 L269.916667,1901.83333 L268.666667,1903.74984 L268.666667,1913.5 C268.666667,1914.91683 267.583496,1916 266.166667,1916 L247.833333,1916 C246.416504,1916 245.333333,1914.91683 245.333333,1913.5 L245.333333,1902.9165 L244.083333,1901 L242,1901 L242,1899.33333 L244.083333,1899.33333 C244.583415,1899.33333 245.000081,1899.58317 245.333333,1899.91683 L245.333333,1896.83333 C245.333333,1895.4165 246.416504,1894.33333 247.833333,1894.33333 L252.833333,1894.33333 L252.833333,1893.5 C252.833333,1892.08317 253.916504,1891 255.333333,1891 L258.666667,1891 C260.083496,1891 261.166667,1892.08317 261.166667,1893.5 L261.166667,1894.33333 L266.166667,1894.33333 C267.583496,1894.33333 268.666667,1895.4165 268.666667,1896.83333 L268.666667,1900.75016 C268.916504,1900.4165 269.416585,1900.16667 269.916667,1900.16667 L272,1900.16667 L272,1901.83333 Z M254.5,1893.5 L254.5,1894.33333 L259.5,1894.33333 L259.5,1893.5 C259.5,1892.99992 259.166748,1892.66667 258.666667,1892.66667 L255.333333,1892.66667 C254.833252,1892.66667 254.5,1892.99992 254.5,1893.5 Z M247.833333,1896 C247.333252,1896 247,1896.33325 247,1896.83333 L247,1897.66667 L267,1897.66667 L267,1896.83333 C267,1896.33325 266.666748,1896 266.166667,1896 L247.833333,1896 Z M266.166667,1914.33333 C266.666748,1914.33333 267,1914.00008 267,1913.5 L267,1899.33333 L247,1899.33333 L247,1913.5 C247,1914.00008 247.333252,1914.33333 247.833333,1914.33333 L266.166667,1914.33333 Z M289.916667,1901.83333 L292,1901.83333 L292,1903.5 L289.916667,1903.5 L288.666667,1905.4165 L288.666667,1913.5 C288.666667,1914.91683 287.583496,1916 286.166667,1916 L270.333333,1916 L270.333333,1914.33333 L286.166667,1914.33333 C286.666748,1914.33333 287,1914.00008 287,1913.5 L287,1902.66667 L273.666667,1902.66667 L273.666667,1901 L287,1901 L287,1899.33333 C287,1898.83325 286.666748,1898.5 286.166667,1898.5 L270.333333,1898.5 L270.333333,1896.83333 L274.5,1896.83333 L274.5,1896 C274.5,1894.58317 275.583171,1893.5 277,1893.5 L278.666667,1893.5 C280.083496,1893.5 281.166667,1894.58317 281.166667,1896 L281.166667,1896.83333 L286.166667,1896.83333 C287.583496,1896.83333 288.666667,1897.9165 288.666667,1899.33333 L288.666667,1902.41683 C288.916504,1902.08317 289.416585,1901.83333 289.916667,1901.83333 Z M276.166667,1896 L276.166667,1896.83333 L279.5,1896.83333 L279.5,1896 C279.5,1895.49992 279.166748,1895.16667 278.666667,1895.16667 L277,1895.16667 C276.499919,1895.16667 276.166667,1895.49992 276.166667,1896 Z" id="Combined-Shape"></path>
</g>
</g>
</svg>