<svg width="18px" height="18px" viewBox="0 0 18 18" version="1.1" xmlns="http://www.w3.org/2000/svg" xmlns:xlink="http://www.w3.org/1999/xlink">
<g id="Symbols" stroke="none" stroke-width="1" fill="none" fill-rule="evenodd" opacity="0.300000012">
<g id="header" transform="translate(-599.000000, -119.000000)" fill="#000000" fill-rule="nonzero">
<g id="70376" transform="translate(599.000000, 119.000000)">
<path d="M17.5113466,15.3899283 L13.6116574,11.4903108 C13.5909323,11.4695857 13.5666215,11.4550996 13.5449641,11.4358088 C14.3122948,10.2718327 14.7601434,8.87851793 14.7601434,7.38014343 C14.7601434,3.30418327 11.4559602,0 7.38007171,0 C3.30418327,0 0,3.30418327 0,7.38007171 C0,11.4558884 3.30411155,14.7601434 7.38,14.7601434 C8.87844622,14.7601434 10.2716892,14.3122948 11.4356653,13.5449641 C11.4549562,13.5665498 11.4693705,13.5908606 11.4900956,13.6115857 L15.3898566,17.5113466 C15.9756813,18.0970996 16.9254502,18.0970996 17.5113466,17.5113466 C18.0970996,16.9255219 18.0970996,15.975753 17.5113466,15.3899283 Z M7.38007171,12.2017052 C4.7170757,12.2017052 2.55836653,10.042996 2.55836653,7.38007171 C2.55836653,4.7170757 4.71714741,2.55836653 7.38007171,2.55836653 C10.0429243,2.55836653 12.2017052,4.71714741 12.2017052,7.38007171 C12.2017052,10.042996 10.0429243,12.2017052 7.38007171,12.2017052 Z" id="Shape"></path>
</g>
</g>
</g>
</svg>