<svg width="40px" height="49px" viewBox="0 0 40 49" version="1.1" xmlns="http://www.w3.org/2000/svg" xmlns:xlink="http://www.w3.org/1999/xlink">
<g id="New" stroke="none" stroke-width="1" fill="none" fill-rule="evenodd">
<g id="Main" transform="translate(-244.000000, -2152.000000)" fill="#35CBBA">
<g id="945968" transform="translate(244.000000, 2152.000000)">
<path d="M16.0643269,43.825332 C15.8855769,43.6472285 15.6375,43.5449219 15.3846154,43.5449219 C15.1317308,43.5449219 14.8836538,43.6472285 14.7048077,43.825332 C14.5259615,44.0034355 14.4230769,44.2502539 14.4230769,44.5019531 C14.4230769,44.7536523 14.5258654,45.0005664 14.7048077,45.1784785 C14.8836538,45.3564863 15.1317308,45.4589844 15.3846154,45.4589844 C15.6375,45.4589844 15.8855769,45.356582 16.0643269,45.1784785 C16.2432692,45.0005664 16.3461538,44.7536523 16.3461538,44.5019531 C16.3461538,44.2502539 16.2432692,44.0033398 16.0643269,43.825332 Z" id="Path"></path>
<path d="M28.9793269,2.66983008 L22.94375,2.66983008 C22.4127885,2.66983008 21.9822115,3.09829297 21.9822115,3.62686133 C21.9822115,4.15542969 22.4127885,4.58389258 22.94375,4.58389258 L28.9793269,4.58389258 C29.5102885,4.58389258 29.9408654,4.15542969 29.9408654,3.62686133 C29.9408654,3.09829297 29.5102885,2.66983008 28.9793269,2.66983008 Z" id="Path"></path>
<path d="M39.0384615,21.6289062 C39.5694231,21.6289062 40,21.2004434 40,20.671875 L40,3.46005078 C40,1.55211328 38.4404808,0 36.5236538,0 L15.3994231,0 C13.4825962,0 11.9230769,1.55211328 11.9230769,3.46005078 L11.9230769,10.0683516 C9.14759615,12.3084746 6.85942308,15.1650215 5.29096154,18.3594961 C3.65298077,21.6956113 2.78721154,25.4217168 2.78721154,29.1349023 L2.78721154,39.1425781 L1.92307692,39.1425781 C0.862692308,39.1425781 0,40.0012266 0,41.0566406 L0,48.0429688 C0,48.5714414 0.430576923,49 0.961538462,49 C1.4925,49 1.92307692,48.5714414 1.92307692,48.0429688 L1.92307692,41.0566406 L18.9838462,41.0566406 L18.9838462,48.0429688 C18.9838462,48.5714414 19.4144231,49 19.9453846,49 C20.4763462,49 20.9069231,48.5714414 20.9069231,48.0429688 L20.9069231,43.8320312 L36.5236538,43.8320312 C38.4404808,43.8320312 40,42.2798223 40,40.3719805 L40,28.6275801 C40,28.0991074 39.5694231,27.6705488 39.0384615,27.6705488 C38.5075,27.6705488 38.0769231,28.0991074 38.0769231,28.6275801 L38.0769231,35.6972656 L23.6609615,35.6972656 L26.7189423,31.4084258 C27.4483654,30.3854551 27.5422115,29.0576699 26.96375,27.9431113 C26.3852885,26.8285527 25.2430769,26.1361406 23.9826923,26.1361406 C23.2654808,26.1361406 22.5536538,26.3709961 21.9781731,26.7975449 L15.9052885,31.3005684 C15.6843269,31.4644121 15.4107692,31.5546602 15.1351923,31.5546602 C14.4243269,31.5546602 13.8461538,30.9791016 13.8461538,30.2716641 L13.8461538,29.09375 L13.8461538,7.27745703 L38.0769231,7.27745703 L38.0769231,20.671875 C38.0769231,21.2004434 38.5075,21.6289062 39.0384615,21.6289062 Z M38.0769231,37.6113281 L38.0769231,40.3719805 C38.0769231,41.2244082 37.3800962,41.9179688 36.5236538,41.9179688 L20.9069231,41.9179688 L20.9069231,41.0566406 C20.9069231,40.4283496 20.5998077,39.8714531 20.1286538,39.5223281 C20.9293269,39.0017031 21.6531731,38.3588652 22.2694231,37.6094141 C22.2822115,37.6098926 22.2948077,37.6113281 22.3076923,37.6113281 L38.0769231,37.6113281 Z M15.1351923,33.4687227 C15.8220192,33.4687227 16.5034615,33.2438203 17.0542308,32.8355508 L23.1270192,28.3325273 C23.3726923,28.1505 23.6765385,28.0502031 23.9825962,28.0502031 C24.52875,28.0502031 25.0044231,28.3385566 25.255,28.8215703 C25.5055769,29.3044883 25.4665385,29.8573652 25.1504808,30.3006621 L21.0928846,35.9915527 C19.6860577,37.9645684 17.3949038,39.1425781 14.9641346,39.1425781 L4.71028846,39.1425781 L4.71028846,29.1349023 C4.71028846,22.7891152 7.31605769,16.8681543 11.9230769,12.5996992 L11.9230769,29.09375 L11.9230769,30.2716641 C11.9230769,32.0345156 13.3640385,33.4687227 15.1351923,33.4687227 Z M13.8461538,5.36339453 L13.8461538,3.46005078 C13.8461538,2.60762305 14.5429808,1.9140625 15.3994231,1.9140625 L36.5235577,1.9140625 C37.3800962,1.9140625 38.0769231,2.60762305 38.0769231,3.46005078 L38.0769231,5.36339453 L13.8461538,5.36339453 Z" id="Shape" fill-rule="nonzero"></path>
<path d="M26.64125,39.0066797 C26.4625,38.8286719 26.2144231,38.7261738 25.9615385,38.7261738 C25.7086538,38.7261738 25.4605769,38.8285762 25.2817308,39.0066797 C25.1028846,39.1845918 25,39.4315059 25,39.6832051 C25,39.935957 25.1027885,40.1818184 25.2817308,40.3598262 C25.4605769,40.5388867 25.7086538,40.6402363 25.9615385,40.6402363 C26.2144231,40.6402363 26.4625,40.538791 26.64125,40.3598262 C26.8200962,40.1818184 26.9230769,39.9358613 26.9230769,39.6832051 C26.9230769,39.4315059 26.8201923,39.1845918 26.64125,39.0066797 Z" id="Path"></path>
<path d="M33.2081731,15.1964121 C32.80375,14.702584 32.2046154,14.4193027 31.5645192,14.4193027 L28.9371154,14.4193027 L28.1229808,13.015625 C27.8575,12.557877 27.2694231,12.4011152 26.8095192,12.6653516 C26.3496154,12.9295879 26.1920192,13.5149082 26.4575962,13.9726563 L26.7166346,14.4193027 L25.2065385,14.4193027 L25.4655769,13.9726563 C25.7311538,13.5149082 25.5735577,12.9295879 25.1136538,12.6653516 C24.6535577,12.4010195 24.0658654,12.557877 23.8001923,13.015625 L22.9859615,14.4193027 L20.3585577,14.4193027 C19.7184615,14.4193027 19.1193269,14.7024883 18.7149038,15.1964121 C18.3104808,15.6903359 18.1525,16.3313555 18.2815385,16.9554355 L19.5464423,23.0704824 C19.7485577,24.04675 20.6220192,24.7552402 21.6233654,24.7552402 L30.2997115,24.7552402 C31.3010577,24.7552402 32.1745192,24.04675 32.3767308,23.0703867 L33.6415385,16.9554355 C33.7705769,16.3313555 33.6125962,15.6902402 33.2081731,15.1964121 Z M31.7579808,16.5694648 L30.4932692,22.6842246 C30.4744231,22.7752383 30.3930769,22.8412734 30.2998077,22.8412734 L21.6234615,22.8412734 C21.5301923,22.8412734 21.4489423,22.7752383 21.4300962,22.684416 L20.1652885,16.5695605 C20.1496154,16.4939551 20.1786538,16.4388301 20.2055769,16.4058125 C20.2325962,16.3727949 20.2811538,16.3334609 20.3586538,16.3334609 L21.8757692,16.3334609 L21.3299038,17.2745098 C21.0643269,17.7322578 21.2219231,18.3175781 21.6818269,18.5818145 C21.8332692,18.6688086 21.9985577,18.7101523 22.1616346,18.7101523 C22.4939423,18.7101523 22.8171154,18.5385566 22.9952885,18.231541 L24.0963462,16.3334609 L27.8269231,16.3334609 L27.8269231,16.3333652 L28.9279808,18.2314453 C29.1061538,18.5384609 29.4292308,18.7100566 29.7616346,18.7100566 C29.9247115,18.7100566 30.0900962,18.6687129 30.2414423,18.5817188 C30.7013462,18.3174824 30.8589423,17.7321621 30.5933654,17.2744141 L30.0475,16.3333652 L31.5646154,16.3333652 C31.6421154,16.3333652 31.6906731,16.3726992 31.7176923,16.4057168 C31.7446154,16.4387344 31.7736538,16.4939551 31.7579808,16.5694648 Z" id="Shape" fill-rule="nonzero"></path>
<path d="M39.7181731,23.8233789 C39.5394231,23.6453711 39.2913462,23.5429688 39.0384615,23.5429688 C38.7855769,23.5429688 38.5375,23.6453711 38.3586538,23.8233789 C38.1798077,24.0013867 38.0769231,24.2483008 38.0769231,24.5 C38.0769231,24.7516992 38.1797115,24.9986133 38.3586538,25.1765254 C38.5375,25.3545332 38.7855769,25.4570312 39.0384615,25.4570312 C39.2913462,25.4570312 39.5394231,25.3546289 39.7181731,25.1765254 C39.8971154,24.9986133 40,24.7516992 40,24.5 C40,24.2483008 39.8971154,24.0013867 39.7181731,23.8233789 Z" id="Path"></path>
</g>
</g>
</g>
</svg>